<?xml version="1.0" encoding="utf-8"?>
<!-- Generator: Adobe Illustrator 27.9.0, SVG Export Plug-In . SVG Version: 6.00 Build 0)  -->
<svg version="1.1" id="Layer_2_00000085956942412634029080000015353935215386945165_"
	 xmlns="http://www.w3.org/2000/svg" xmlns:xlink="http://www.w3.org/1999/xlink" x="0px" y="0px" viewBox="0 0 582.9 940.5"
	 style="enable-background:new 0 0 582.9 940.5;" xml:space="preserve">
<style type="text/css">
	.st0{fill:none;stroke:#AD3434;stroke-width:3;stroke-linecap:round;stroke-linejoin:round;}
</style>
<g id="Layer_1-2">
	<g>
		<path class="st0" d="M98.5,757.3c4.9-2.8-13.7-11.7-8.5-14.7c7.1-4.1-62.3-144.3-18.3-169.7C76.3,570.3-2,453.7,1.6,451.6
			c14.7-8.5,63.4-14.5,81.6-25c0.6-0.3-69.3-114.3-66.8-115.7c0,0,59.6-35.2,65.1-38.4c1-0.6-30.2-49-28.8-49.9
			C78,208,130.4,245.7,157,230.4c1.4-0.8-67.7-110.4-64.7-112.1c0,0,68,87,99.7,68.7c1.1-0.6-64.6-111.4-64.4-111.5
			c12-6.9,76.1,23.3,99.5,9.8c0,0-13.9-18.5-11.5-19.9c0,0,111.6,56.2,123.4,49.3c3.3-1.9-67.8-111.8-65.4-113.2
			c2.8-1.6,161.3,203.9,186.6,189.3c10.3-6-82.9-135.7-79.5-137.7"/>
		<path class="st0" d="M117.7,810.5c5.6-3.2-17-15.3-10.9-18.8C141.9,771.4,262.1,939,262.1,939l-64.2-111.2
			c23.8-13.7,148.4,96,148.4,96c1-0.6-1.6-1.3-1-1.7c18.1-10.5,27-52,43.1-61.3c0,0-13.9-18.1-11.3-19.6
			c25.6-14.8,69.5,78,103.2,58.5c1-0.5-64.2-111.2-64.2-111.2s79.9,80.9,116.1,60.1c1-0.6-64.7-112.1-64.7-112.1
			c24.3-14,103.1,28.2,103.1,28.2c3.7-2.1-66.8-114.7-66.4-115c5.1-2.9,59.8-3.5,77.1-13.5c2.2-1.3-74.2-120.6-70.8-122.6
			c17.1-9.9,50.4-14.6,57.2-18.5c0,0-73.7-117.7-69.4-120.2c26.8-15.5,3.6-88.7,18.7-97.4c42.8-24.7-91.2-65-50.9-88.2"/>
	</g>
</g>
</svg>
