<?xml version="1.0" encoding="utf-8"?>
<!-- Generator: Adobe Illustrator 27.9.0, SVG Export Plug-In . SVG Version: 6.00 Build 0)  -->
<svg version="1.1" id="Layer_2_00000085956942412634029080000015353935215386945165_"
	 xmlns="http://www.w3.org/2000/svg" xmlns:xlink="http://www.w3.org/1999/xlink" x="0px" y="0px" viewBox="0 0 669.3 906.4"
	 style="enable-background:new 0 0 669.3 906.4;" xml:space="preserve">
<style type="text/css">
	.st0{fill:none;stroke:#992323;stroke-width:3;stroke-linecap:round;stroke-linejoin:round;}
</style>
<g>
	<g>
		<g>
			<path class="st0" d="M647.8,734.6c-0.2-0.6-31.9,12.5-32.4,11.1c-6.6-19.1,3-31.9-4.4-53.4c-0.2-0.6-72.5,26.8-73.1,25.2
				c-1.3-3.9,53.1-14.3,51.1-20.2c-0.3-0.9-78.4,27.8-78.7,27.1c-9.2-26.7,59.3-21.4,55.9-31.1c-0.8-2.4-5.7,2.7-5.9,2
				c-10.6-30.9-46-33.2-51.9-50.6c-0.3-1-21.4,9.7-22.1,7.6c-11.4-33.1-68.4,1.5-83.4-42c-0.9-2.7-13.7,7.2-14.4,5"/>
			<path class="st0" d="M224,717.7c-0.3-1-52.7,20.4-53.4,18.4c-4.9-14.2,209.4,0.7,177.8-91c-1.8-5.3-64.4,33.8-67.9,23.4
				c-28-81.3,175.4-31.8,163-67.8c-1.7-5-98.2,44.8-101.6,35"/>
			<path class="st0" d="M213.7,716.6c-0.3-0.9-30.7,12.4-31.3,10.8c-0.5-1.5-6.3-1.8-6.5-2.3c-0.5-1.5-29.8,11.4-30.2,10.4
				c-18.6-54,61.6-81.9,48.2-121c-0.4-1.2-8.2,4.3-8.7,3c-7-20.4,32.7-87.5,30.5-94c-0.2-0.5-30.6,12.7-31.3,10.8
				c-4.9-14.3,28.6-18.8,24.4-31.2c-0.2-0.5-17.5,6.5-17.7,6.1c-8.2-23.8-11.8-76.1-13.7-81.6c-0.6-1.9-31.3,11.8-31.6,10.9
				c-0.9-2.7-27.4-17.8-29.5-24c-0.5-1.4-7.8,3.6-8.1,2.8c-4.7-13.7,20.7-28.3,17.6-37.4c-0.4-1.1-31.2,12-31.6,10.9
				c-3.2-9.2,19-7,16.3-15.1c-0.7-2-3.2,3.3-3.9,1.3c-2.7-7.8-21.8-21.7-30.8-47.9c-0.4-1.2-53.7,19.4-54,18.6
				c-2.2-6.5,63.2-16,56.8-34.8c-0.3-1-50.5,19.5-51.1,17.6c-0.9-2.5,13.8-25.9,12.4-30c-0.3-0.8-31.1,12.4-31.6,10.9
				c-5.6-16.3,46.3-25,42-37.4c-0.6-1.8-33.3,12.8-33.7,11.6c-2-5.7,20.8-9,18.1-16.9c-0.1-0.4-23,8.5-23.2,8"/>
			<path class="st0" d="M253.9,241.7c-1.8-5.2-67.6,32.7-70.5,24.3c-20.2-58.5-150.2,22.7-157.7,0.8c-0.9-2.5-9.7,6-10.5,3.6"/>
			<path class="st0" d="M250.7,247.1c-0.6-1.9-32.3,11.7-32.5,11.2c-3.3-9.5,66.3-71.3,58.8-92.9c-0.3-0.9-31.7,12-32,11
				c-17.6-51,125.1-47.6,99.4-122c-0.7-2.1-106,39.1-106.8,36.8c-10.7-31,58.3-23.5,48.1-53.3c-0.4-1.2-29.3,12.3-30,10.3
				c-4.3-12.3,43.8-0.3,38.3-16.4c-0.8-2.3-14.5,6.4-14.9,5.1"/>
			<path class="st0" d="M653.6,739.8c-0.5-1.4-29.9,11.1-30.1,10.4c-5.6-16.4,32.4-18.7,27.9-31.9c-0.6-1.7-29.4,10.7-29.6,10.2
				c-6.2-18.1,21.8-56.7,15-76.3c-0.2-0.5-36.7,13.6-37,12.7c-9.3-26.9,41.5-78,27.8-118c-0.5-1.4-82.5,29.9-83,28.6
				c-8.1-23.7,86.2-27.2,70.1-74.1c-0.5-1.6-93.3,33.9-93.8,32.3c-8.4-24.3,114.4-94.9,106.8-117.1c-1-3-48.1,19.4-49,16.9
				C570.1,408,714.8,393.1,689,318c-0.8-2.3-26.5,12.9-27.7,9.5c-3.2-9.4,1.4-22.2-4.3-38.8c-0.7-2.1-11.9,8-13.1,4.5
				c-10.6-30.8-57,27.6-67.5-3c-0.5-1.4-33.1,13.2-33.6,11.6c-12.5-36.3-77-27.8-80.2-37.3c-0.7-2.1-3.9,5-5,1.7
				c-6.8-19.6,44.3-31.2,37.6-50.6c-0.5-1.3-88.2,32.2-88.8,30.6c-3.2-9.3,50.3-51.2,46.5-62.2c-0.4-1.2-76.4,27.9-76.9,26.5
				c-1.9-5.6,5.5-67.2,3.7-72.6c-0.4-1.3-23,10-23.6,8.1c-7.2-20.8,80.2-15.3,70.8-42.7c-0.3-0.7-90.2,33-90.8,31.3
				c-2.4-6.9,51.7-13.4,49.4-19.9c-0.6-1.7-30.6,12.3-31.2,10.7c-13.9-40.5-8.7-61.2-20.6-95.7c-0.4-1.1-30.6,12.5-31.2,10.7
				c-5.3-15.5,25.1-17.2,22-26.2c-0.4-1.2-49.4,18.1-49.7,17.1"/>
		</g>
	</g>
</g>
</svg>
