<?xml version="1.0" encoding="utf-8"?>
<!-- Generator: Adobe Illustrator 27.9.0, SVG Export Plug-In . SVG Version: 6.00 Build 0)  -->
<svg version="1.1" id="Layer_2_00000085956942412634029080000015353935215386945165_"
	 xmlns="http://www.w3.org/2000/svg" xmlns:xlink="http://www.w3.org/1999/xlink" x="0px" y="0px" viewBox="0 0 669.3 906.4"
	 style="enable-background:new 0 0 669.3 906.4;" xml:space="preserve">
<style type="text/css">
	.st0{fill:none;stroke:#992323;stroke-width:2;stroke-linecap:round;stroke-linejoin:round;}
</style>
<g>
	<g>
		<g>
			<path class="st0" d="M93.7,116.4c1.5,0.9,53.6-96.4,55.1-95.5c13.8,8-45.9,96.5-40.6,99.6c1.7,1,31.8-58.4,33.3-57.6
				c43.1,24.9-52.2,84.9-46.6,88.1c1.7,1,69.6-123.2,70.7-122.5c9.5,5.5,12.3,43.6,15.8,45.6c0.4,0.2,11.1-21.4,12.1-20.9
				c24.5,14.1-34.1,76-5.3,92.6c1.4,0.8,26.4-48.8,27.7-48c14.2,8.2-12.2,38.4-0.1,45.4c1.4,0.8,69.1-120,69.3-120
				c15.4,8.9-89.8,74.2-52.5,95.7c1.1,0.6,56.9-99.5,57.3-99.3C352.5,55.7,230,162.9,233,164.6c0.4,0.2,49.2-88.1,50.5-87.4
				c5.7,3.3,4,58.6,6.2,59.9c1.3,0.8,10.5-20.8,11.6-20.1c12.9,7.5,9.7,54.5,13.2,56.5c0.2,0.1,83.8-145.9,84.1-145.7
				c4.4,2.5,7.9,38.2,14.8,42.2c0.7,0.4,0.7-3.4,1.6-2.8c29.5,17.1-56.4,55.7-23.8,74.5c0.3,0.2,50.9-90.9,52.1-90.3
				c16.7,9.7-19.8,38.8,2.3,51.5c1.9,1.1-0.3-3.4,1.4-2.5c8.8,5.1,15.2,12.7,27.9,20c0.4,0.2,31.5-58.6,33.2-57.6
				c27.7,16-29.4,56.5-9.2,68.2c0.5,0.3,39.9-72.7,41.5-71.8c7.5,4.4-64.7,52-36.7,68.2c1.6,0.9,53.4-92.5,53.4-92.5
				c17,9.8-93.9,96.8-52.7,120.6c0.9,0.5,55.6-98.2,56.4-97.7c5.6,3.2-23,119.8-22,120.4c1,0.6,59.6-106.2,60.9-105.5
				c13.3,7.7-111.6,137.2-52.3,171.5c0.1,0.1,34.8-60.6,34.9-60.5c5.5,3.2-69.8,76-26.8,100.7c1.2,0.7,55.7-101.7,58-100.4
				c13,7.5-117,126-47.2,166.4c1.5,0.8,39.8-72.4,41.3-71.5c3.8,2.2-134.8,130.5-78.3,163.1c2.1,1.2,53.1-99.5,56.4-97.6
				c4.7,2.7-64.4,67.3-25.6,89.7c1.2,0.7,50.1-89,51.1-88.5c43,24.8-98.4,204.1-81.5,213.9c2.4,1.4,35.8-69.6,39.1-67.7
				c1.5,0.9-40.1,88.7-16.8,102.1c3.2,1.9,20.3-40.8,22.8-39.4c38.5,22.2-39.7,113-39.7,113c3.3,1.9,75.1-132.6,76.2-132
				C639.6,552.2,501.7,716,527.7,731c0.1,0,83-148,84.8-146.9c41.5,24-45.9,122.5-43.2,124.1c0.1,0,11.1-24.9,13.6-23.5
				c51,29.5-77.2,109.4-43,129.2c1.4,0.8,9.1-23.3,12.3-21.4c1.7,1,3.8,9.4,8.7,12.2c1.9,1.1,32.6-58.8,33.6-58.2
				c8.5,4.9-80.3,128.2-70.9,133.6c0.7,0.4,72.3-132.7,75.5-130.8"/>
			<path class="st0" d="M56.8,171.6c1.1,0.6,55.3-98.4,56.4-97.8c35.4,20.4-70.4,100.3-56.8,108.1c0.4,0.2,45.6-79.9,46-79.7
				c31.9,18.4-4.2,71.1,8.4,78.3c0,0,13.9-26.1,14.8-25.6c15.6,9-117.7,145.7-68.8,173.9c3,1.7,62.4-115.4,65.6-113.6
				c23.1,13.3-77,71.6-41.8,91.9c2.2,1.3,56.6-104.9,59.6-103.2c60.8,35.1-130.6,171.7-68,207.8c2.3,1.3,61.4-113.7,64.6-111.9
				C186.1,328.5,13,425,87.3,467.9c1,0.6,12.7-27,14.8-25.7c3.1,1.8-65.9,90-44.5,102.3c2.6,1.5,57.5-103.3,59.1-102.4
				c0,0-42.7,108.1-35.4,112.3c2.6,1.5,30.8-60.8,34.1-59c41.3,23.9-82.1,112.5-54.3,128.6c0.3,0.2,59.1-104.9,60.2-104.2
				c58,33.5-47.6,139.2-40.9,143c3.3,1.9,41.3-73.2,42-72.8c3.4,1.9-54.5,69.1-27.4,84.7c2.7,1.5,41.8-72.8,42-72.7
				c3.7,2.1-51.4,98.3-47.3,100.7c3.2,1.9,47.8-84.4,48.5-84c15.6,9-91.8,71.5-51.4,94.8c0,0,34.9-60.5,34.9-60.5
				s-60.9,85.1-29.2,103.4c2.6,1.5,48.7-89.4,50.9-88.1c11.9,6.9-143.8,123.1-65.6,168.2c0.7,0.4,53.2-96.5,55.1-95.4
				c27.9,16.1-32.8,135.4-31.6,136.2c1.8,1.1,73.9-132.1,75.7-131c20.2,11.6-84.8,82-34.5,111.1c0.4,0.3,56-97.8,56.4-97.6
				c32.8,18.9-92.6,71.8-49.6,96.6c0.8,0.4,26.1-45.9,26.4-45.7c26.1,15-43,66.8-16.2,82.3c1.3,0.7,69.1-119.8,69.2-119.8
				c1.3,0.7-52.2,59.4-31.9,71c1.1,0.6,53.8-94.4,54.3-94.1c10.5,6.1-33,77.8-6,93.3c1.3,0.8,31.5-58.6,33.3-57.6
				c0,0-63.4,69-22.4,92.7c0.7,0.4,44.7-80.4,46-79.7c18.8,10.9-37.8,35.3-21.8,44.5c0.8,0.4,32-58.3,33.3-57.6
				c10.7,6.2-33.2,35.5-12.9,47.2c0.4,0.3,55.8-97.4,56.1-97.2c19.7,11.4-89.4,122.1-44.1,148.3c0.3,0.2,76-134.7,77.3-133.9
				c20.1,11.6-40.6,66.3-26.9,74.2c0.1,0,16.6-30.6,17.4-30.1c23.5,13.6-50.5,71.1-37.3,78.8c1.9,1.1,37.3-64.6,37.3-64.6
				c3.5,2-21.1,78.6-3.4,88.8c0.3,0.2,92.5-160.5,92.6-160.4c15.7,9.1-21.9,73.3-12.9,78.5c1.5,0.9,33-58.2,33.5-58
				c22.5,13-40.9,72.4-17.3,86c0.2,0.1,32.4-58.1,33.3-57.6c3.8,2.2,17.2,27.2,27.6,33.2c1.2,0.7,0.1-4.1,1.8-3.1
				c4.7,2.7,7.8,33.1,10.5,34.7c0.6,0.3,44.3-77.2,44.5-77.1"/>
		</g>
	</g>
</g>
</svg>
