<?xml version="1.0" encoding="utf-8"?>
<!-- Generator: Adobe Illustrator 27.9.0, SVG Export Plug-In . SVG Version: 6.00 Build 0)  -->
<svg version="1.1" id="Layer_2_00000085956942412634029080000015353935215386945165_"
	 xmlns="http://www.w3.org/2000/svg" xmlns:xlink="http://www.w3.org/1999/xlink" x="0px" y="0px" viewBox="0 0 669.3 906.4"
	 style="enable-background:new 0 0 669.3 906.4;" xml:space="preserve">
<style type="text/css">
	.st0{fill:none;stroke:#992323;stroke-width:5;stroke-linecap:round;stroke-linejoin:round;}
</style>
<g>
	<g>
		<g>
			<path class="st0" d="M491.3,738.5c-1.1-0.4-3.5,12.2-4.6,11.9c-4.3-1.3-52.4,66.5-56.7,65.2c-0.2-0.1-1.5,4.8-1.8,4.7
				c-1.6-0.5-31.4,4.1-33,3.6c-0.2-0.1-23.1,60.8-23.4,60.7c-2.3-0.7-13.5-40.7-15.7-41.4c-0.2-0.1-22.8,59.7-23,59.7
				c-1.8-0.5-18.7-28.4-20.5-29c-0.2-0.1-0.7,2.3-0.9,2.3c-1.8-0.5-18.9-28-20.7-28.6c-0.1,0-12.6,33-12.6,33
				c-1.4-0.4-27.5-6.7-28.9-7.1c-0.1,0-0.7,2.1-0.7,2.1c-1.4-0.4-26.8-8.6-28.2-9c-0.1,0-0.7,2.1-0.7,2c-1.5-0.4-30.4,0.9-31.9,0.4
				c-0.1,0,0,0.3-0.1,0.2c-1.8-0.5-19-27.8-20.8-28.3c-0.1,0-0.7,2.2-0.8,2.1c-1.8-0.6-18-29.9-20-30.5c-0.1-0.1-9.1,23.9-9.1,23.8
				c-3-0.9-7.4-54.4-10.4-55.3c-0.2-0.1-15.1,39.8-15.3,39.8c-4.3-1.3,4.2-80.8-0.1-82.1c-0.2-0.1-14.9,39.2-15.1,39.2
				c-2.9-0.9-7.7-53.7-10.6-54.6c-0.2-0.1-14.9,39.1-15.1,39c-2.4-0.7-12.7-42.3-15.1-43c-0.2-0.1-3.2,8.7-3.3,8.6
				c-3.4-1-3.4-63.5-6.8-64.6c-0.2-0.1-1.2,3.8-1.4,3.7c-3.2-1-6-57.6-9.1-58.6c-0.2-0.1-1.6,4.8-1.8,4.8
				c-4.7-1.4,6.9-86.8,2.2-88.2c-0.4-0.1-10.6,28.9-11.1,28.7"/>
			<path class="st0" d="M527.3,651.8c-2.8-0.9-14.4,45.5-17.1,44.7c-7.8-2.4,32.7-144.6,24.9-146.9c-0.3-0.1-1.9,6-2.2,5.9
				c-3.7-1.1-1.2-68.7-4.8-69.9c-0.2-0.1-1.4,4.3-1.7,4.2c-3.6-1.1-1.9-67-5.5-68.1c-0.2-0.1-18.2,47.9-18.4,47.8
				c-3.8-1.2,0-71.3-3.8-72.5c-0.2-0.1-1,3.1-1.2,3.1c-3.6-1.1-2.4-65.8-6-66.9c-0.2-0.1-10,26.4-10.1,26.3
				c-1.7-0.5-20.5-24.1-22.2-24.5c-0.2-0.1-0.8,2.5-0.9,2.5c-1.7-0.5-19.6-26.3-21.4-26.8c-0.2-0.1-0.7,2.3-0.9,2.3
				c-1.6-0.5-21.3-22.3-23-22.7c-0.1-0.1-0.7,2.2-0.8,2.2c-1.5-0.4-22.9-18.5-24.4-18.9c-0.1,0-0.7,2.2-0.8,2.1
				c-1.5-0.4-24.4-14.7-25.9-15.2c-0.1,0-0.7,2.1-0.7,2c-1.4-0.4-27.4-6.9-28.9-7.3c-0.1,0-9.9,26-10,26
				c-2.1-0.6-16.1-34.7-18.1-35.3c-0.1,0-0.7,2.1-0.8,2.1c-1.7-0.5-19.5-26.4-21.3-26.9c-0.1-0.1-13.4,35.2-13.6,35.2
				c-1.4-0.4-27.7-6.3-29.1-6.7c-0.2-0.1-0.8,2.5-0.9,2.4c-1.7-0.5-33.4,9.5-35.1,8.9c-0.2-0.1-0.9,2.9-1.1,2.8
				c-3.2-1-44.9,43.9-48.2,42.9c-0.2-0.1-2.1,6.1-2.3,6c-1.7-0.5-32.8,7.7-34.4,7.2c-0.3-0.1-8.9,24.1-9.2,24.1"/>
		</g>
	</g>
</g>
</svg>
