<?xml version="1.0" encoding="utf-8"?>
<!-- Generator: Adobe Illustrator 27.9.0, SVG Export Plug-In . SVG Version: 6.00 Build 0)  -->
<svg version="1.1" id="Layer_2_00000085956942412634029080000015353935215386945165_"
	 xmlns="http://www.w3.org/2000/svg" xmlns:xlink="http://www.w3.org/1999/xlink" x="0px" y="0px" viewBox="0 0 669.3 906.4"
	 style="enable-background:new 0 0 669.3 906.4;" xml:space="preserve">
<style type="text/css">
	.st0{fill:none;stroke:#992323;stroke-width:3;stroke-linecap:round;stroke-linejoin:round;}
</style>
<g>
	<g>
		<g>
			<path class="st0" d="M101.3,387c20.3,0-20.3-29.4,0-29.4c83.5,0-40.5-161.4,43-161.4c4,0-4-8,0-8c18,0,12-19.8,30-19.8
				c2.9,0-2.9-87.4,0-87.4c25.7,0,19.6,24.4,45.3,24.4c2.1,0-2.1-85.2,0-85.2c35.7,0,35.2,7.9,70.9,7.9c1.5,0-1.5-3.1,0-3.1
				c26.3,0,10.7,37.4,37,37.4c1.4,0-1.4-46.6,0-46.6c20.6,0,18.9,11.8,39.5,11.8c1.5,0-1.5-3,0-3c42.8,0,28.2,47.9,71,47.9
				c2.1,0-2.1-4.1,0-4.1c45.3,0,13.5,68.9,58.7,68.9c3.2,0-3.2-3.9,0-3.9c126.8,0-65.9,246.1,60.9,246.1c20.7,0-20.7-18,0-18"/>
			<path class="st0" d="M98.4,509.6c34.5,0-34.5-61.4,0-61.4c95.1,0-71,188.7,24.2,188.7c5.8,0-5.8-11.6,0-11.6
				c41.8,0-18.1,80.2,23.8,80.2c3.9,0-3.9-7.8,0-7.8c44.3,0-16.5,84.1,27.8,84.1c2.9,0-2.9-68.8,0-68.8c31.4,0-22,62.1,9.4,62.1
				c2.7,0-2.7-5.4,0-5.4c74.7,0,5.6,125.9,80.2,125.9c1.7,0-1.7-36.8,0-36.8c12.9,0,12.5,4.7,25.4,4.7c1.5,0-1.5-3.1,0-3.1
				c25.7,0,24.9,9,50.5,9c1.4,0-1.4-2.9,0-2.9c20.1,0,19.6-6.5,39.7-6.5c1.6,0-1.6-3.2,0-3.2c13.9,0,11.9-10.2,25.8-10.2
				c1.7,0-1.7-3.5,0-3.5c38.2,0,19.2-50.3,57.4-50.3c2.4,0-2.4-4.9,0-4.9c14.4,0,1.8-23.7,16.2-23.7c2.8,0-2.8-39.5,0-39.5
				c12,0,4.3,17.6,16.3,17.6c3.2,0-3.2-6.3,0-6.3c9.3,0,9.2,1.4,18.5,1.4c3.9,0-3.9-54.7,0-54.7c50.7,0-16.3-95.3,34.4-95.3
				c8.3,0-8.3-16.6,0-16.6c32.2,0-19.6-63.1,12.6-63.1c34.5,0-34.5-60.7,0-60.7"/>
		</g>
	</g>
</g>
</svg>
