<?xml version="1.0" encoding="utf-8"?>
<!-- Generator: Adobe Illustrator 27.9.0, SVG Export Plug-In . SVG Version: 6.00 Build 0)  -->
<svg version="1.1" id="Layer_2_00000085956942412634029080000015353935215386945165_"
	 xmlns="http://www.w3.org/2000/svg" xmlns:xlink="http://www.w3.org/1999/xlink" x="0px" y="0px" viewBox="0 0 889.7 882.5"
	 style="enable-background:new 0 0 889.7 882.5;" xml:space="preserve">
<style type="text/css">
	.st0{fill:none;stroke:#992323;stroke-width:3;stroke-linecap:round;stroke-linejoin:round;}
</style>
<g>
	<g>
		<g>
			<path class="st0" d="M495,714l138.9-42.2c1.8,2.7-170.2,66.2-170.2,66.2l188.9-57.3"/>
			<path class="st0" d="M636.8,475.4L785,430.4c0,0-219.7,188.1-217.3,191.9l152-46.1c1.1,1.7-118,71.8-118,71.8l144.4-43.8
				l-150.9,76.5l75.6-22.9"/>
			<path class="st0" d="M532.7,279.1l149.9-45.5c0,0-31.1,90.1-29.2,93l111.9-33.9c0.2,0.3-171.6,74.3-171.6,74.3l154.6-46.9
				c3.4,5.1-79.7,133.1-75,140.2c0.1,0.2,50.6-15.4,50.8-15.4c0,0-189.6,58.8-188.5,60.4l281.8-85.5"/>
			<path class="st0" d="M603.9,232.9l155.5-47.2c2.9,4.4-230.4,80.6-224.6,89.4l228.3-69.3"/>
			<path class="st0" d="M475.1,736.8l161.2-48.9l-94.1,29.3L730.6,660c0,0-293.4,155.5-284.6,168.6l185.3-56.2"/>
			<path class="st0" d="M210.3,204.7l166.5-50.5L198.5,363.7c0,0,150.5-45.8,150.6-45.7L103.5,569.6l198.6-60.3L72.3,580.3
				c0.1,0.1,126.3-38.5,126.5-38.4c0,0-88.4,32.1-86.5,35.1c0,0,191.4-58.3,191.6-58.1c0,0-196.8,166.3-190.8,175.1l140.8-42.7
				c0.8,1.2-21.6,72.1-21,72.9l166-50.4c4.1,6.1-214.6,67.4-214.6,67.4l98-29.8c0,0,80.5,129.1,84,134.3l130.2-39.5l-179.9,65.7
				c0,0,280.7-85.5,280.9-85.2"/>
			<path class="st0" d="M134.4,216.4L306.7,164c2.1,3.2-144.6,52-144.6,52l107.2-32.5"/>
			<path class="st0" d="M359.7,67.8c0,0,188.6-57.8,188.9-57.3l-33.9,82.2c0,0.1,69.2-21.1,69.2-21c5.6,8.5,22.1,141.5,22.8,142.6
				l64-19.4c0.4,0.8-111.6,43.8-108.7,48.3l226.8-68.8"/>
			<path class="st0" d="M265.3,93.4l190.4-57.8c0,0-276.4,112.4-275.5,113.7l192.1-58.2c5.6,8.5-197.7,103.3-193.4,109.7l236.5-71.8
				"/>
		</g>
	</g>
</g>
</svg>
