<?xml version="1.0" encoding="utf-8"?>
<!-- Generator: Adobe Illustrator 27.9.0, SVG Export Plug-In . SVG Version: 6.00 Build 0)  -->
<svg version="1.1" id="Layer_2_00000085956942412634029080000015353935215386945165_"
	 xmlns="http://www.w3.org/2000/svg" xmlns:xlink="http://www.w3.org/1999/xlink" x="0px" y="0px" viewBox="0 0 669.3 906.4"
	 style="enable-background:new 0 0 669.3 906.4;" xml:space="preserve">
<style type="text/css">
	.st0{fill:none;stroke:#992323;stroke-width:3;stroke-linecap:round;stroke-linejoin:round;}
</style>
<g>
	<g>
		<g>
			<path class="st0" d="M226.5,864.7c0,0.1,108.6,27,108.6,27.1c-9,36.3-76.2-47-85.2-10.7c-0.3,1,41.3,9.2,41,10.2"/>
			<path class="st0" d="M97.2,803.4c0,0.1,114.7,28.5,114.6,28.6c-11.3,45.2-95.8-46.2-107.1-1c0,0.1,168.1,41.8,168.1,41.9"/>
			<path class="st0" d="M167.2,804.4c0,0,120.4,30,120.4,30c-16.1,64.6-135.1-87.9-151.2-23.4c0,0.1,124.9,31,124.8,31.1"/>
			<path class="st0" d="M373.3,700.9c0,0,126.4,31.5,126.4,31.5c-9.4,37.8-43.4,34.6-52.9,72.4c-0.2,0.6,82.8,20,82.7,20.6
				c-17.5,70.2-147.8-88.9-165.3-18.7c-0.4,1.5,134.2,31.8,133.8,33.4c-21.3,85.6-172.8-26.9-194.1,58.8c-0.9,3.6,25.1,2.4,24.2,6"
				/>
			<path class="st0" d="M467.1,692.5c0,0,132.3,33,132.3,33c-23.5,94.3-198.4-120.3-221.9-26c0,0,210.6,52.5,210.6,52.5"/>
			<path class="st0" d="M116.5,31.5c0,0.1,138.3,34.4,138.3,34.5c-7.1,28.6-58.9-44.3-66-15.7c0,0.1,167.4,41.6,167.4,41.7
				c-28.4,113.8-204.6,22.1-232.9,135.9c-0.3,1.2,163,39.3,162.7,40.6C255.8,389.2,31.6,117.4,1.5,238.2
				c-0.3,1.2,130.7,31.3,130.4,32.5C114.6,340,35.7,320.2,18.4,389.5c-0.3,1.2,87.5,20.5,87.1,21.7c-9.7,39-82.7-40.1-92.4-1.1
				c-0.3,1.2,133.4,31.9,133.1,33.2c-10.2,40.8-22,50.4-32.2,91.2c-0.3,1.3,92.3,21.6,92,22.9C192,613.9,87.3,516.4,73.3,572.8
				c-0.3,1.4,52.1,11.5,51.8,12.9c-4.6,18.3-38.5-23.4-43-5.1c-0.3,1.4,29.9,6,29.6,7.4c-8.1,32.6-28.3,35.5-36.4,68.1
				c-0.3,1.4,131.6,31.3,131.2,32.7c-13.8,55.3-68.3,46.8-82.1,102.1c0,0,124.1,30.9,124.1,30.9"/>
			<path class="st0" d="M369,52.8c0,0.2,144.6,35.9,144.5,36c-16.9,68,28.1,92.7,11.1,160.6c-0.3,1.4,127.2,30.3,126.9,31.6
				c-24.7,98.9-169.2,32.7-193.9,131.6c-0.3,1.3,178,43,177.6,44.3c-22.9,91.8-188.3-143.2-211.2-51.5c-0.3,1.3,100.4,23.7,100.1,25
				c-6,24.1-50.8-29.3-56.8-5.2c-0.3,1.3,170.4,41.1,170.1,42.4c-22.9,91.9-184.2-24.5-207.1,67.5c-0.1,0.5,114.2,27.9,114,28.4
				c-6.9,27.8-14.5,34.5-21.5,62.3c-0.5,1.9,145.5,34.3,145,36.2c-21.5,86.4-177.7-133.8-199.2-47.3c-0.5,2,72.9,16,72.4,18.1
				c-9,36.1-52.4,23.4-61.4,59.6c0,0,83.4,20.8,83.4,20.8"/>
			<path class="st0" d="M227.6,1.5c-2.8,11.1,178.4,32.7,175.7,43.8c-9.8,39.1-82.5-48-92.3-8.8c-0.1,0.6,81.8,19.8,81.7,20.4"/>
			<path class="st0" d="M278.3,13.7c-2,8.1,176.8,35.4,174.8,43.6c-25.2,101-214.1-104.9-239.3-3.9c0,0.1,37.1,9.2,37.1,9.3"/>
		</g>
	</g>
</g>
</svg>
