<?xml version="1.0" encoding="utf-8"?>
<!-- Generator: Adobe Illustrator 27.9.0, SVG Export Plug-In . SVG Version: 6.00 Build 0)  -->
<svg version="1.1" id="Layer_2_00000085956942412634029080000015353935215386945165_"
	 xmlns="http://www.w3.org/2000/svg" xmlns:xlink="http://www.w3.org/1999/xlink" x="0px" y="0px" viewBox="0 0 669.3 906.4"
	 style="enable-background:new 0 0 669.3 906.4;" xml:space="preserve">
<style type="text/css">
	.st0{fill:none;stroke:#992323;stroke-width:6;stroke-linecap:round;stroke-linejoin:round;}
</style>
<g>
	<g>
		<g>
			<path class="st0" d="M358.8,863.5c-1.6-4.1-12.1,7.9-13.1,5.3c-6.7-16.5-68.5,15.3-77-5.8c-0.3-0.7-39.2,16.8-39.6,16
				c-3-7.5,33.2-22.2,28.7-33.2c-0.3-0.8-2.9,2.3-3.3,1.3c-3-7.3-25.7-18.6-28.6-25.9c-0.2-0.5-2.7,1.7-2.9,1.2
				c-2.5-6.1-13.1-15.1-15-19.9c-0.2-0.6-2.5,1.9-2.8,1.1c-6.1-15,19.3-46.4,15.7-55.5c-0.3-0.6-60.4,25.2-60.7,24.5
				c-4.2-10.5-34.8-10.2-37.4-16.8c-0.2-0.5-5.9,3.3-6.2,2.5c-0.6-1.4,5.9-2,5.2-3.8c-0.2-0.6-12.6,5.7-12.8,5.2
				c-6.5-16,43.4-47.2,37.6-61.5c-0.2-0.4-2.5,1.6-2.7,1.1c-2.4-6-24.4,2-26.5-3.3c-0.3-0.7-21.9,9.5-22.1,8.9
				c-6.8-16.8,42.7-31.4,37.5-44.3c-0.3-0.7-2.5,1.5-2.7,1.1c-0.4-1.1,1.8-4.2,1.2-5.6c-0.2-0.5-2.4,1.8-2.7,1.1
				c-8.1-20.1,35.9-52.8,31.3-64.4c-0.3-0.7-88.8,36.5-89,36c-10.2-25.3,72.2-42.4,66.3-57c-0.2-0.5-62.7,26-62.9,25.4
				c-4-9.8,39.7-23.4,35.4-34c-0.3-0.7-2.5,1.8-2.7,1.1c-1.1-2.6,2-11.5,0.7-14.5c-0.3-0.7-2.6,1.6-2.8,1.1
				c-2.6-6.4,1.5-29.1-1.2-36c-0.2-0.6-2.6,1.7-2.8,1.1c-1.7-4.3,12.5-15.8,10.2-21.5c-0.3-0.7-39.8,16.7-40,16.2
				c-3.4-8.4,33.7-25.7,30.1-34.7c-0.3-0.8-2.5,2-2.8,1.1c-4-9.8,6.7-35,2.3-45.8c-0.2-0.5-2.7,1.7-2.9,1.2
				c-4.1-10.1,8.3-25.8,4.2-35.8c-0.2-0.5-2.7,1.7-3,1.2c-5.8-14.2,27.2-40.7,23.7-49.4c-0.3-0.7-29.2,12.6-29.5,11.9
				c-7.4-18.2,72.1-24.9,63.6-46c-0.3-0.8-104,43-104.3,42.2c-2-4.9,25.2-11.7,23.2-16.7c-0.4-0.9-5.4,2.8-5.7,2.3
				c-4.8-11.8,49.8-15.9,44.4-29.2c-0.3-0.9-49.4,20.8-49.7,20.1c-12.1-29.9,101.7-53.6,93.2-74.7c-0.2-0.5-52.4,21.8-52.6,21.3
				c-4.1-10.1,26.4-30.7,23.4-38.2c-0.4-1-3.1,2.1-3.4,1.4c-1.9-4.8,9.2-11.5,7.7-15.2c-0.3-0.7-3.2,2-3.5,1.4
				c-4.7-11.6,50.2-34.4,46.3-44.2c-0.4-1-50,21.4-50.4,20.4c-1.8-4.4,23.3-6.3,20.5-13.1c-0.3-0.7-3.3,2.5-3.7,1.5
				c-1.5-3.7,14.2-13.9,11.7-20.1c-0.5-1.2-3.6,2.3-3.9,1.6c-1.9-4.7,21.7-3.7,19.9-8.3c-0.3-0.8-32.8,14.6-33.3,13.4
				c-10-24.7,58.9-54,52.6-69.6c-0.6-1.4-4.2,3.4-4.8,2c-8.1-20.1,70.5-19.4,64.8-33.4c-0.4-0.9-8.7,4.6-9.1,3.7
				c-1.4-3.5-17.6,7.8-19.7,2.5c-0.5-1.1-45.7,19.8-46.1,18.6c-6.4-15.7,74.4-34.9,68.2-50.4c-1-2.5-8.6,5.6-9.3,3.8
				c-0.4-1,2.4-4.5,1.9-5.8c-1.2-2.9-31.9,17.8-33.6,13.6"/>
			<path class="st0" d="M561.3,442.8c-0.2-0.5-2.7,1.8-2.9,1.2c-2.8-7,5.6-18.8,2.4-26.6c-0.3-0.6-2.5,2-2.8,1.1
				c-3.2-8,44.7-19.1,38.9-33.6c-0.3-0.8-90.1,37.2-90.4,36.5c-6.7-16.5,95.8-35.7,85.4-61.5c-0.3-0.8-89.4,36.9-89.7,36.2
				c-7.7-19,57.8-46.3,51.1-62.9c-0.2-0.5-2.4,1.9-2.7,1.1c-5.9-14.6,46.7-29.9,42.8-39.4c-0.3-0.6-49.4,20.7-49.7,20.1
				c-1.6-3.9,3.8-19.8,2-24.3c-0.3-0.8-2.5,1.7-2.7,1.1c-3.9-9.7-3.6-32-6.6-39.6c-0.3-0.8-2.3,1.9-2.7,1.1
				c-2.5-6.3-4.1-25.5-6.8-32.2c-0.2-0.5-2.4,1.8-2.7,1.1c-3.8-9.5-7.1-27.7-10.8-36.7c-0.3-0.7-2.4,1.7-2.7,1.1
				c-3.3-8.1,8.3-27.4,5.7-34c-0.2-0.5-35.3,15.1-35.6,14.4c-4.9-12.1,51.1-15.1,46.6-26.2c-0.3-0.7-59.5,24.6-59.7,24.1
				c-7.2-17.9,77-42.1,70.2-59.1c-0.3-0.7-58.2,24.3-58.5,23.6c-5.4-13.2,13-42.1,9.4-50.9c-0.3-0.9-57.7,24.1-58,23.4
				c-1.7-4.1-2.6-14.3-4.2-18.4c-0.2-0.5-10.9,5.2-11.2,4.5c-2.9-7.1,0.1-31.9-3.7-41.4c-0.2-0.6-2.9,2.1-3.2,1.3
				c-1.1-2.7-8.5-6.3-9.8-9.6c-0.4-1-3.1,2.3-3.4,1.4c-6.8-16.7-66-5.1-73.2-22.9c-1.1-2.8-43,21.8-44.6,18
				c-2.4-5.8,22.2-6.7,20.2-11.7c-2.6-6.5-81.4,41-84.2,34"/>
			<path class="st0" d="M431.6,837.3c-3.2-7.8-26.7,21.8-30.6,12.3c-3.3-8.1,40.6-21.4,37.3-29.5c-0.8-2-6.7,4.4-7.3,3
				c-4.2-10.5,30.3-18.8,27.7-25.3c-0.7-1.7-5.2,3.4-5.6,2.3c-6.1-15.2,49.7-25.8,46-35.1c-0.4-1-71.8,30.6-72.4,29.2
				c-5.5-13.6,59.5-14.4,54.2-27.5c-0.3-0.8-4,3.3-4.6,1.9c-11.2-27.6,90.1-61.5,82.2-81c-0.3-0.9-39.4,16.9-39.7,16.1
				c-1.2-3.1,2.1-12.2,0.8-15.5c-0.4-1-3.3,2.4-3.6,1.5c-4.3-10.7,19.5-26.9,15.7-36.4c-0.3-0.8-3,2.4-3.4,1.4
				c-1.9-4.8,13.6-21.7,11-28.1c-0.3-0.6-2.9,2.4-3.3,1.3c-2.2-5.3,9.7-12.9,7.5-18.4c-0.3-0.8-2.9,2.1-3.3,1.3
				c-3-7.3,13.2-32.2,10.7-38.5c-0.4-0.9-2.8,2-3.1,1.3c-1-2.4-0.7-7.5-1.4-9.1c-0.3-0.6-39.2,16.8-39.6,16
				c-5.5-13.7,51.9-17.3,47.3-28.8c-0.3-0.7-2.7,2.2-3.1,1.2c-4.5-11.1,44.6-19.3,41.2-27.7c-0.3-0.8-53,22.3-53.3,21.5
				c-3.3-8,22-20.8,19-28.2c-0.3-0.8-2.7,1.9-3,1.2c-1.4-3.4,6.7-15.3,4.6-20.6c-0.3-0.7-2.7,1.7-3,1.2c-3.9-9.7-26.8-17.8-32-30.5
				c-0.2-0.6-6.3,3.1-6.5,2.6c-6-14.9,55.2-16.5,49.9-29.5c-0.3-0.6-29.8,13-30.1,12.2"/>
		</g>
	</g>
</g>
</svg>
