<?xml version="1.0" encoding="utf-8"?>
<!-- Generator: Adobe Illustrator 27.9.0, SVG Export Plug-In . SVG Version: 6.00 Build 0)  -->
<svg version="1.1" id="Layer_2_00000085956942412634029080000015353935215386945165_"
	 xmlns="http://www.w3.org/2000/svg" xmlns:xlink="http://www.w3.org/1999/xlink" x="0px" y="0px" viewBox="0 0 669.3 906.4"
	 style="enable-background:new 0 0 669.3 906.4;" xml:space="preserve">
<style type="text/css">
	.st0{fill:none;stroke:#992323;stroke-width:3;stroke-linecap:round;stroke-linejoin:round;}
</style>
<g>
	<g>
		<g>
			<path class="st0" d="M378.6,38.4c-2,7.9,52.1,4.6,50.2,12.5c-3.1,12.5,1.3,14.9-1.8,27.4c-0.6,2.4,11.8,0.4,11.2,2.8
				c-4.1,16.3,20.1,15.6,16,31.8c-0.5,2,10.7,0.6,10.2,2.5c-3.1,12.5-8.3,12.4-11.5,25c-0.4,1.8,89.3,20.4,88.8,22.2
				c-3.5,13.9-16.6,8.9-20.1,22.8c-0.4,1.7,41.3,8.5,40.9,10.2c-12.7,51.1-99.3-51.2-112-0.1c-0.4,1.6,129.8,30.7,129.4,32.3
				c-8,31.9-61.3-21.4-69.2,10.6c-0.4,1.5,9.7,0.8,9.3,2.3c-3.1,12.6,2,15-1.1,27.5c-0.4,1.5,9.6,0.8,9.2,2.3
				c-3.1,12.5,0.6,14.7-2.5,27.2c-0.4,1.4,9.5,0.8,9.1,2.3c-3.1,12.4-0.7,14.5-3.8,26.9c-0.4,1.4,9.5,0.8,9.1,2.3
				c-3.1,12.3-2,14.2-5.1,26.6c-0.4,1.4,9.4,0.9,9.1,2.3c-3.1,12.3-3,14-6.1,26.3c-0.3,1.4,9.4,0.9,9,2.3c-3.1,12.3-3.9,13.8-7,26.1
				c-0.3,1.4,9.3,0.9,9,2.2c-3.3,13.2-13.6,10.4-16.9,23.6c-0.3,1.4,40.6,8.7,40.3,10c-6.7,26.7,50.6,12.1,44,38.8
				c-0.3,1.3,6.5,0.2,6.2,1.5c-5.3,21.3-38.3-4.4-43.6,17c-0.3,1.3,46.2,10.1,45.8,11.4c-18,72-139.6-83.5-157.6-11.5
				c-0.3,1.3,165.3,39.8,165,41.1c-10.8,43.4-84.2-39.2-95,4.1c-0.3,1.3,9.3,0.9,8.9,2.2c-5.7,23-42.2-7.2-48,15.9
				c-0.3,1.4,99.1,23.2,98.7,24.6c-12.8,51.3-99.7-51.5-112.4-0.2c-0.3,1.3,104.4,24.6,104.1,25.9c-11,44.1-85.6-40.4-96.6,3.7
				c-0.3,1.3,43.8,9.6,43.5,10.9c-11.2,44.9-87.3-41.7-98.5,3.3c-0.3,1.3,153.2,36.8,152.9,38.1C574.9,735,474,611,459.1,670.6
				c-0.3,1.4,10.5,1.1,10.2,2.5c-5.7,22.9,40.3,13.5,34.5,36.4c-0.3,1.4,9.4,0.9,9,2.3c-3.4,13.5-15,9.7-18.4,23.2
				c-0.3,1.4,9.3,0.9,8.9,2.2c-3.8,15.3-21.9,6.2-25.7,21.4c-0.3,1.3,3-0.7,2.7,0.7c-8.3,33.3-64.1-23.5-72.4,9.8
				c-0.3,1.4,92.5,21.6,92.1,23c-11.1,44.4-86.2-40.8-97.3,3.6c-0.4,1.4,78.2,18,77.9,19.4c-5,20.1-35.4-2.4-40.4,17.8
				c-0.4,1.5,9.6,0.8,9.3,2.3c-3.3,13.2-13.5,10.4-16.8,23.6c-0.4,1.7,20.8,3.4,20.4,5.1c-12.5,50-97.2-49.5-109.6,0.5
				c-0.5,1.9,134.1,31.4,133.6,33.3c-20.9,84-162.3-101.8-183.3-17.9c-0.6,2.5,117.1,26.6,116.5,29"/>
			<path class="st0" d="M268.1,7.8c-2.8,11.2,65.9,4.5,63.1,15.7c-15,60.1-116.7-65.1-131.7-5c-0.5,2.1,48.4,9.8,47.9,11.9
				c-3.9,15.5-22.7,5.7-26.6,21.2c-0.4,1.8,99.2,22.9,98.7,24.6c-11.5,46.3-89.9-43.7-101.4,2.5c-0.4,1.5,58.9,13,58.5,14.6
				c-8.4,33.7-64.8-24.1-73.2,9.6c-0.4,1.5,9.6,0.8,9.2,2.3c-9.1,36.3-70.2-28.3-79.3,8.1c-0.3,1.4,112.4,26.6,112,27.9
				c-3.3,13.2-13.3,10.5-16.6,23.7c-0.3,1.4,4.6-0.3,4.2,1.1c-10.7,42.7-83-38.3-93.6,4.5c-0.3,1.3,6.4,0.2,6.1,1.5
				c-3.5,13.9,10.9,15.7,7.4,29.7c-0.3,1.3,9.2,0.9,8.9,2.2c-6.4,25.7-48.1-11.5-54.5,14.2c-0.3,1.3,100.2,23.6,99.9,24.9
				c-14.4,57.8-112.3-61.6-126.7-3.8c-0.3,1.3,82.5,19.2,82.2,20.5c-10.4,41.7-81-36.7-91.4,5c-0.3,1.3,34.1,7.1,33.8,8.4
				c-10.6,42.6,90.9,5.2,80.2,47.8c-0.3,1.3,19.5,3.5,19.1,4.8c-11.7,47.1-91.5-45-103.2,2.1c-0.3,1.3,32.8,6.8,32.5,8.1
				c-9.1,36.6-70.8-28.8-80,7.9c-0.3,1.3,27.2,5.4,26.9,6.7c-8.1,32.4,65.3,9.7,57.2,42.1c-0.3,1.3,46.2,10.1,45.8,11.4
				c-16.2,65.1-126.4-72.9-142.6-7.7c-0.3,1.3,48.1,10.6,47.8,11.9c-3.4,13.6,9.1,15.7,5.7,29.2c-0.3,1.3,109.2,25.8,108.8,27.1
				c-3.1,12.5-8.2,12.5-11.3,25c-0.3,1.4,11.4,1.4,11.1,2.8c-10.5,42.3-82.1-37.6-92.7,4.7c-0.3,1.4,9.3,0.9,9,2.2
				c-3.1,12.3-4.3,13.7-7.4,26c-0.3,1.4,9.3,0.9,9,2.2c-3.1,12.3-3.4,13.9-6.5,26.2c-0.3,1.4,9.4,0.9,9,2.3
				c-4.6,18.3,26.7,15.1,22.2,33.4c-0.4,1.4,1.4-1.1,1.1,0.3c-3.7,14.9-20.5,6.9-24.2,21.8c-0.4,1.4,9.5,0.8,9.1,2.3
				c-4.7,18.8,28.4,14.9,23.7,33.7c-0.4,1.5,23.1,4.2,22.8,5.7c-8.9,35.8-69.2-27.5-78.1,8.3c-0.4,1.5,10.9,1.1,10.5,2.6
				c-5.6,22.6,39.4,13.7,33.8,36.2c-0.4,1.6,9.8,0.8,9.4,2.3c-3.2,12.9,4.5,15.3,1.3,28.2c-0.4,1.6,9.9,0.8,9.5,2.4
				c-3.1,12.3-3.7,13.8-6.8,26.1c-0.4,1.7,44.3,9.3,43.8,10.9c-3.3,13.1,6.2,15.5,2.9,28.6c-0.4,1.8,25.1,4.4,24.6,6.1
				c-3.7,14.7-19.8,7.3-23.5,22c-0.5,2.1,11.1,0.5,10.5,2.6c-4.4,17.8,25.2,15.2,20.8,33c-0.7,2.9,12.9,0.2,12.2,3"/>
		</g>
	</g>
</g>
</svg>
